<svg xmlns="http://www.w3.org/2000/svg"
     version="1.0"
     viewBox="0 0 62 19">
    <g fill="#FFFFFF">
        <path d="M11.1 5.7c-1.9 6.5-1.5 8.3 1.7 8.2 1.6-.1 2-.3 1-.6-1.1-.3-1.8-1.4-1.8-2.8s.7-2.5 1.8-2.8c1.6-.4 1.6-.5-.1-.6-1.4-.1-1.6-.5-.7-2 .6-1.2.6-2.2.1-2.6-.6-.3-1.5 1.1-2 3.2zm27.2-3C36.7 3 36 3.8 36 5.4c0 1.3-.3 3.8-.7 5.6-.4 2.4-.3 3.1.5 2.6.7-.4 1.2-1.6 1.2-2.7 0-1 .4-1.9.9-1.9.4 0 .6-1.1.3-2.5-.3-1.8 0-2.5 1.2-2.5 1 0 1.6.8 1.6 2.2 0 1.6.3 1.9 1.1 1.1 1.3-1.3.9-4.5-.6-4.8-.5-.1-2 0-3.2.2zm7.2.1c-.6.4-1.1 1.6-1.2 2.7 0 1.1-.4 3.6-.8 5.5-1.1 5.4 1 2.4 2.4-3.4 1.2-5.1 1.2-5.9-.4-4.8z"/>
        <path d="M3.5 3.9c-.3.5.5 1.2 1.7 1.4l2.3.4-2.2.8C4 6.9 3 7.7 3 8.2s.5.6 1 .3c2.1-1.3.9 1.7-1.7 4.2-2.5 2.3-2.6 2.5-.6 1.9 1.3-.4 3.4-.1 5.2.8 3.3 1.7 6.1 2.1 6.1.8 0-.5-1.8-1.5-4-2.2-2.2-.7-4-1.7-4-2.1 0-.4.9-2.3 2-4.2 1.8-3.1 1.9-3.5.4-4.1-2.2-.8-3.2-.8-3.9.3zm15.8-.2c1.8.5 1.8 2.3.1 8.5-.3 1-.1 1.8.4 1.8 1.1 0 2.2-3.4 2.2-7.2 0-1.7.6-2.8 1.8-3.1.9-.3-.1-.5-2.3-.5-2.2 0-3.2.2-2.2.5zm30 1.3c.1 1.1.4 2 .8 2 1 0 1.9-2.7 1.2-3.4-1.2-1.2-2.2-.5-2 1.4zm5.1.7c0 1-.4 3.5-.8 5.6-.5 2.5-.4 3.7.2 3.3.9-.5 2.4-6.7 2.4-9.3-.1-1.6-1.8-1.2-1.8.4zM47 8.4c0 1.8 2.2 5.6 3 5.1 1.1-.7-.8-5.5-2.2-5.5-.4 0-.8.2-.8.4zM28.3 9.7c.9.2 2.5.2 3.5 0 .9-.3.1-.5-1.8-.5-1.9 0-2.7.2-1.7.5z"/>
    </g>
</svg>