<svg xmlns="http://www.w3.org/2000/svg"
     version="1.0"
     viewBox="0 0 512 512">
    <defs>
        <style type="text/css">
            @font-face {
            font-family: 'Marck Script';
            font-style: normal;
            font-weight: 400;
            src: url(https://fonts.gstatic.com/s/marckscript/v20/nwpTtK2oNgBA3Or78gapdwuyzCg_WMM.woff2) format('woff2');
            unicode-range: U+0301, U+0400-045F, U+0490-0491, U+04B0-04B1, U+2116;
            }
        </style>
    </defs>
    <path fill="#FF8000" fill-opacity=".1"
          d="M52.4 278.5c0 8.8.2 12.3.3 7.7.2-4.6.2-11.8 0-16-.1-4.2-.3-.5-.3 8.3zm81.6-7.1c0 .2.8 1 1.8 1.7 1.5 1.3 1.6 1.2.3-.4s-2.1-2.1-2.1-1.3zm-19.7 63.3c11.5.2 29.9.2 41 0 11.1-.1 1.8-.2-20.8-.2-22.5 0-31.6.1-20.2.2zm99.4 0c14.5.2 38.1.2 52.5 0 14.5-.1 2.7-.2-26.2-.2s-40.7.1-26.3.2z"/>
    <path fill="#FF8000" fill-opacity=".6"
          d="M37.8 168.7c6.1.2 16.3.2 22.5 0 6.1-.1 1.1-.3-11.3-.3s-17.4.2-11.2.3zm63.5 53c.9.2 2.3.2 3 0 .6-.3-.1-.5-1.8-.5-1.6 0-2.2.2-1.2.5z"/>
    <path fill="#FF8000" fill-opacity=".7"
          d="M95.8 221.7c.6.2 1.8.2 2.5 0 .6-.3.1-.5-1.3-.5-1.4 0-1.9.2-1.2.5zm11.4 47c3.7.2 10 .2 14 0 4-.1 1-.3-6.7-.3s-11 .1-7.3.3z"/>
    <path fill="#BF8000" fill-opacity=".9"
          d="m119.9 108.7-2.4 2.8 2.8-2.4c2.5-2.3 3.2-3.1 2.4-3.1-.2 0-1.4 1.2-2.8 2.7zm52.9 4c19.9.2 52.5.2 72.5 0 19.9-.1 3.6-.2-36.3-.2s-56.2.1-36.2.2zM7 213.4c0 .2.8 1 1.8 1.7 1.5 1.3 1.6 1.2.3-.4S7 212.6 7 213.4zm56.9 20.3c-1.3 1.6-1.2 1.7.4.4.9-.7 1.7-1.5 1.7-1.7 0-.8-.8-.3-2.1 1.3zm79.6 30.3c1 1.1 2 2 2.3 2 .3 0-.3-.9-1.3-2s-2-2-2.3-2c-.3 0 .3.9 1.3 2zM40.2 282.5c0 1.6.2 2.2.5 1.2.2-.9.2-2.3 0-3-.3-.6-.5.1-.5 1.8zm48-.5c0 1.4.2 1.9.5 1.2.2-.6.2-1.8 0-2.5-.3-.6-.5-.1-.5 1.3zm-48 6c0 1.4.2 1.9.5 1.2.2-.6.2-1.8 0-2.5-.3-.6-.5-.1-.5 1.3zm95.7 3.7c-1.3 1.6-1.2 1.7.4.4.9-.7 1.7-1.5 1.7-1.7 0-.8-.8-.3-2.1 1.3zM245.4 302c0 6.9.1 9.7.3 6.2.2-3.4.2-9 0-12.5-.2-3.4-.3-.6-.3 6.3zm21 0c0 6.9.1 9.7.3 6.2.2-3.4.2-9 0-12.5-.2-3.4-.3-.6-.3 6.3zm-159.1-6.3c3.7.2 9.7.2 13.5 0 3.7-.2.6-.3-6.8-.3-7.4 0-10.5.1-6.7.3zm-55.9 57.8c0 16.5.2 23.4.3 15.3.2-8.1.2-21.6 0-30-.1-8.4-.3-1.8-.3 14.7zm65.4-6.8c.6.2 1.8.2 2.5 0 .6-.3.1-.5-1.3-.5-1.4 0-1.9.2-1.2.5zm-31.5 53c4.2.2 11.2.2 15.5 0 4.2-.1.7-.3-7.8-.3s-12 .2-7.7.3z"/>
    <g fill="#FF8000" stroke-width="0">
        <path d="M132.5 101.9c-7.5 1.9-14.5 8.1-18.9 16.7-1.4 2.9-7.8 21.8-14.2 42-6.4 20.3-12 37.2-12.3 37.7-.4.4-3.1-5.1-6-12.2s-5.9-13.8-6.7-15c-1.5-2-2.2-2.1-26.7-2.1-14.3 0-26.8.5-28.9 1-5.6 1.6-11.9 6.9-14.7 12.5-2.2 4.1-2.6 6.3-2.6 13 .1 9 1.9 13.7 7.7 19.2 6.2 6 9.2 6.7 31 7.1l19.8.4-4.9 5.5c-6.3 7-10.6 15.2-12.7 23.9-2.4 9.6-2.3 45.9.1 54.2 1.8 6 5.8 14.7 8.1 17.2 1 1.2 1.4 8.7 1.6 34.5.3 37.1.3 37 8.1 44.8 7.4 7.4 10.5 8.2 32.7 8.2 17.7 0 19.9-.2 24.1-2.1 6.3-3 11.6-7.9 14.7-13.8 2.6-5 2.7-5.5 3-26.9l.4-21.7H278v-11h-91v-66h91v-12.1l-49.1.3-49.1.3-1.9 2.4c-1.8 2.2-1.9 4.4-1.9 38.7v36.5l-46.2-.3-46.3-.3-6.5-3.1c-9.5-4.5-16.2-11.1-20.7-20.2l-3.8-7.6v-51.1l3.2-6.8c3.7-7.7 10.4-14.8 17.9-18.9 11-5.9 8.2-5.8 110.6-5.8H278v-11l-91.4-.2-91.4-.3 10.2-32 10.1-32 81.3-.3 81.2-.2v-11l-79.4-.2-79.5-.3 2.4-6c2.8-6.9 5-10 8.9-12.9 2.7-2.1 3.8-2.1 75.2-2.4l72.4-.3V101l-71.2.1c-39.2.1-72.6.4-74.3.8zM72.6 194c3 7.4 5.7 14.3 6 15.3.5 1.7-.6 1.8-27.8 1.5-22.7-.2-28.9-.6-31.3-1.8-9.9-5-10.1-22-.4-27.2 3.1-1.6 5.6-1.8 25.7-1.6l22.4.3 5.4 13.5zm10 150.6c5 1.3 11.6 1.7 24.2 1.8l17.2.1V366c0 18.3-.1 19.9-2.2 24-4.5 8.8-10.2 10.5-33.6 9.8-13-.3-14.1-.5-17.9-3-7-4.6-7.3-6.2-7.3-35.1v-25.5l6.3 3.4c3.5 1.8 9.5 4.1 13.3 5z"/>
        <path d="M94.2 258.4C84 261.7 78 270.5 78 281.9c.1 10.8 4.6 18.2 13.8 22.4 4.3 2 6.3 2.2 22.7 2.2 19.5 0 21.8-.5 28.3-6 5.5-4.6 7.7-9.9 7.7-18.5 0-8.3-2-13.4-7.2-18.1-6.2-5.8-8.4-6.3-27.3-6.6-12.8-.2-18.7.1-21.8 1.1zm38.3 11c9.4 4 10.2 19.4 1.2 24.3-4.8 2.7-35 2.7-39 0-4.2-2.7-6.1-6.4-6.1-11.8 0-5.8 2.3-9.5 7.5-12.1 4.5-2.4 31-2.6 36.4-.4zm71.1 17.8c-1.3 1.8-1.6 5.1-1.6 15 0 11.5.2 13 2 14.8 2.5 2.5 5.2 2.6 7.3.2 2.4-2.7 2.5-28.3.1-30.6-2.2-2.3-6-2-7.8.6zm32.8-.8c-1.7 1.3-1.9 2.7-1.9 15.6 0 12.9.2 14.3 1.9 15.6 2.6 1.8 5.1 1.8 7-.2 1.3-1.3 1.6-4.2 1.6-15.9 0-13.2-.2-14.5-1.9-15.5-2.7-1.4-4.4-1.3-6.7.4zm32.4-.3c-1.6.9-1.8 2.7-1.8 15.4 0 11.7.3 14.6 1.6 15.9 1.9 2 4.4 2 7 .2 1.7-1.3 1.9-2.7 1.9-15.6 0-12.9-.2-14.3-1.9-15.6-2.3-1.6-4.4-1.7-6.8-.3z"/>
    </g>
    <g fill="#FF4000" stroke-width="0">
        <path d="M278 106.4v5.5l50.4.3c49.2.3 50.5.4 53.2 2.4 3.9 2.9 6.1 6 8.9 12.9l2.4 6-57.5.3-57.4.2v11l59.2.2 59.2.3 10.3 32c5.6 17.6 10.3 32.1 10.3 32.2 0 .2-31.3.3-69.5.3H278v11h71.5c49.1 0 73.1.4 76.7 1.1 12.9 2.8 24.1 11.6 30 23.7l3.3 6.7v51l-3.2 6.8c-4.2 8.9-12.1 16.8-21 21l-6.8 3.2-46.2.3-46.3.3v-36.5c0-34.3-.1-36.5-1.9-38.7l-1.9-2.4-27.1-.3-27.1-.3V269h47v66h-47v11h98.8l.4 21.7c.3 21.4.4 21.9 3 26.9 3.1 5.9 8.4 10.8 14.7 13.8 4.2 1.9 6.4 2.1 24.1 2.1 22.2 0 25.3-.8 32.7-8.2 7.8-7.8 7.8-7.7 8.1-44.8.2-25.8.6-33.3 1.6-34.5 2.4-2.7 6.6-11.8 8.1-17.7 2.3-8.7 2.4-44.4.1-53.7-2.1-8.7-6.4-16.9-12.7-23.9l-4.9-5.5 19.8-.4c21.8-.4 24.8-1.1 31-7.1 5.8-5.5 7.6-10.2 7.7-19.2 0-6.7-.4-8.9-2.6-13-2.8-5.6-9.1-10.9-14.7-12.5-2.1-.5-14.6-1-28.9-1-24.7 0-25.2 0-26.7 2.2-.8 1.1-3.8 7.9-6.7 15-2.8 7.1-5.5 12.6-5.9 12.1-.4-.4-6-17.4-12.4-37.7-6.4-20.2-12.8-39.1-14.2-41.8-3.2-6.4-8.7-12.4-13.8-15.1-4-2.2-4.9-2.2-55.3-2.5l-51.3-.3v5.5zm214.9 75.4c9.7 5.2 9.4 22.2-.4 27.2-2.4 1.2-8.6 1.6-31.2 1.8-15.6.2-28.3.1-28.3-.2 0-.3 2.3-6.3 5.1-13.3 2.8-7.1 5.5-13.8 6-15.1.8-2.2.9-2.2 23.1-2.2 19.7 0 22.7.2 25.7 1.8zm-45.5 208.8c-3.5 7.4-9.7 9.4-28.4 9.4-20-.1-24.4-1.6-28.7-10-2.2-4.1-2.3-5.7-2.3-24.2V346h18.3c20.5 0 26.1-1 36.1-6.3l6.1-3.2.3 25.3c.2 21.8 0 25.8-1.4 28.8z"/>
        <path d="M379.5 257.9c-6.9 1.7-12.5 6.3-16.1 13.1-1.3 2.5-1.9 5.6-1.9 11 0 8.6 2.2 13.9 7.7 18.5 6.5 5.5 8.8 6 28.3 6 16.4 0 18.4-.2 22.7-2.2 9.2-4.2 13.7-11.6 13.8-22.4 0-11.6-6.1-20.3-16.6-23.5-5-1.5-32.2-1.8-37.9-.5zm36.4 11.9c5.3 2.6 7.5 6.3 7.4 12.2-.1 5.5-1.9 9-6 11.7-2.3 1.5-5.2 1.8-19.8 1.8-15 0-17.3-.2-19.8-1.9-8.3-5.6-7.3-20.2 1.6-24.1 5.1-2.2 32.1-2 36.6.3zm-115.3 16.8c-1.3 1.2-1.6 4.1-1.6 15.3 0 12.1.2 14 1.8 15.4 2.5 2.2 4.8 2.1 7.2-.3 1.8-1.8 2-3.3 2-14.8 0-9.9-.3-13.2-1.6-15-1.8-2.6-5.6-2.9-7.8-.6z"/>
    </g>
    <path fill="#BF4000" fill-opacity=".9"
          d="M304.3 112.7c13 .2 34.4.2 47.5 0 13-.1 2.3-.2-23.8-.2s-36.8.1-23.7.2zm199.1 101.5-1.9 2.3 2.3-1.9c1.2-1.1 2.2-2.1 2.2-2.3 0-.8-.8-.2-2.6 1.9zM447 233.4c0 .2.8 1 1.8 1.7 1.5 1.3 1.6 1.2.3-.4s-2.1-2.1-2.1-1.3zm-79.6 30.8-1.9 2.3 2.3-1.9c1.2-1.1 2.2-2.1 2.2-2.3 0-.8-.8-.2-2.6 1.9zm103.7 19.4c0 1.1.3 1.4.6.6.3-.7.2-1.6-.1-1.9-.3-.4-.6.2-.5 1.3zm.1 4.4c0 1.4.2 1.9.5 1.2.2-.6.2-1.8 0-2.5-.3-.6-.5-.1-.5 1.3zm-79.9 7.7c3.7.2 9.7.2 13.5 0 3.7-.2.6-.3-6.8-.3-7.4 0-10.5.1-6.7.3zm69.1 57.3c0 16.2.2 22.9.3 14.7.2-8.1.2-21.3 0-29.5-.1-8.1-.3-1.4-.3 14.8zm-49.1 46.7c4.2.2 11.2.2 15.5 0 4.2-.1.7-.3-7.8-.3s-12 .2-7.7.3z"/>
    <path fill="#FF4000" fill-opacity=".7" d="M391.3 268.7c3.7.2 9.6.2 13 0 3.4-.2.4-.3-6.8-.3-7.1 0-9.9.1-6.2.3z"/>
    <path fill="#BF4000" fill-opacity=".6"
          d="M312.8 145.7c15.6.2 40.8.2 56 0 15.2-.1 2.5-.2-28.3-.2s-43.3.1-27.7.2zm11.6 155.8c0 18.1.2 25.7.3 16.8.2-8.9.2-23.7 0-33-.1-9.2-.3-2-.3 16.2z"/>
    <path fill="#FF4000" fill-opacity=".3"
          d="M455.8 180.7c5.6.2 14.8.2 20.5 0 5.6-.1 1-.3-10.3-.3s-15.9.2-10.2.3zM336.5 298.5c0 19.8.1 28 .2 18.3.2-9.7.2-25.9 0-36-.1-10.1-.2-2.1-.2 17.7z"/>
    <path fill="#FF8000" fill-opacity=".4"
          d="M160.3 133.7c22.5.2 58.9.2 81 0 22.1-.1 3.8-.2-40.8-.2-44.5 0-62.6.1-40.2.2zm5 88c10.3.2 27.1.2 37.5 0 10.3-.1 1.8-.2-18.8-.2s-29.1.1-18.7.2zm99 0c3.1.2 8.3.2 11.5 0 3.1-.2.5-.3-5.8-.3s-8.9.1-5.7.3zm-113.2 60.9c0 1.1.3 1.4.6.6.3-.7.2-1.6-.1-1.9-.3-.4-.6.2-.5 1.3z"/>
    <path fill="#BF8000" fill-opacity=".7"
          d="M213.4 301c0 6.9.1 9.7.3 6.2.2-3.4.2-9 0-12.5-.2-3.4-.3-.6-.3 6.3zM91 290.4c0 .2.8 1 1.8 1.7 1.5 1.3 1.6 1.2.3-.4s-2.1-2.1-2.1-1.3zm32.4 74.6c0 10.2.2 14.3.3 9.2.2-5 .2-13.4 0-18.5-.1-5-.3-.9-.3 9.3z"/>
    <path fill="#BF4000" fill-opacity=".7"
          d="M298.4 302c0 6.3.1 8.9.3 5.7.2-3.1.2-8.3 0-11.5-.2-3.1-.3-.5-.3 5.8zm90 63c0 10.2.2 14.3.3 9.2.2-5 .2-13.4 0-18.5-.1-5-.3-.9-.3 9.3z"/>
    <path fill="#BF4000" fill-opacity=".4"
          d="M312.2 209.7c19.2.2 50.4.2 69.5 0 19.2-.1 3.5-.2-34.7-.2s-53.9.1-34.8.2zm15.1 12c7.5.2 19.9.2 27.5 0 7.5-.1 1.3-.3-13.8-.3-15.1 0-21.3.2-13.7.3z"/>
    <path fill="#FF8000" fill-opacity=".5" d="M119.3 221.7c1.5.2 3.9.2 5.5 0 1.5-.2.2-.4-2.8-.4s-4.3.2-2.7.4z"/>
    <path fill="#FF8000" fill-opacity=".2"
          d="M6 213.4c0 .2.8 1 1.8 1.7 1.5 1.3 1.6 1.2.3-.4S6 212.6 6 213.4zm100.8 43.3c3.9.2 10.5.2 14.5 0 3.9-.1.7-.3-7.3-.3s-11.2.2-7.2.3zm-54.7 4.9c0 1.1.3 1.4.6.6.3-.7.2-1.6-.1-1.9-.3-.4-.6.2-.5 1.3zm90.9.8c0 .2.8 1 1.8 1.7 1.5 1.3 1.6 1.2.3-.4s-2.1-2.1-2.1-1.3zm58.4 39.6c0 6.9.1 9.7.3 6.2.2-3.4.2-9 0-12.5-.2-3.4-.3-.6-.3 6.3zm-66 63.5c0 10.4.2 14.6.3 9.2.2-5.4.2-13.9 0-19-.1-5.1-.3-.7-.3 9.8z"/>
    <path fill="#FF4000" fill-opacity=".2"
          d="m503.4 215.2-1.9 2.3 2.3-1.9c2.1-1.8 2.7-2.6 1.9-2.6-.2 0-1.2 1-2.3 2.2zm-112.6 41.5c3.9.2 10.5.2 14.5 0 3.9-.1.7-.3-7.3-.3s-11.2.2-7.2.3zm-23.9 7c-1.3 1.6-1.2 1.7.4.4.9-.7 1.7-1.5 1.7-1.7 0-.8-.8-.3-2.1 1.3zM310.4 302c0 6.9.1 9.7.3 6.2.2-3.4.2-9 0-12.5-.2-3.4-.3-.6-.3 6.3zm66 63.5c0 10.4.2 14.6.3 9.2.2-5.4.2-13.9 0-19-.1-5.1-.3-.7-.3 9.8z"/>
    <path fill="#FF8000" fill-opacity=".3"
          d="M35.8 180.7c5.6.2 14.8.2 20.5 0 5.6-.1 1-.3-10.3-.3s-15.9.2-10.2.3zm194.5 41c5.3.2 14.1.2 19.5 0 5.3-.1.9-.3-9.8-.3-10.7 0-15.1.2-9.7.3zm-54.8 76.8c0 19.8.1 28 .2 18.3.2-9.7.2-25.9 0-36-.1-10.1-.2-2.1-.2 17.7z"/>
    <path fill="#FF4000" fill-opacity=".1"
          d="M460.8 222.7c4.5.2 11.9.2 16.5 0 4.5-.1.8-.3-8.3-.3-9.1 0-12.8.2-8.2.3zm-1.4 55.8c0 8.8.2 12.3.3 7.7.2-4.6.2-11.8 0-16-.1-4.2-.3-.5-.3 8.3zm-159.6 56.2c4.5.2 11.9.2 16.5 0 4.5-.1.8-.3-8.3-.3-9.1 0-12.8.2-8.2.3zm57.5 0c11.5.2 29.9.2 41 0 11.1-.1 1.8-.2-20.8-.2-22.5 0-31.6.1-20.2.2z"/>
    <path fill="#BF8000" fill-opacity=".8"
          d="M15 205.4c0 .2.8 1 1.8 1.7 1.5 1.3 1.6 1.2.3-.4s-2.1-2.1-2.1-1.3zm24.2 5.3c7 .2 18.7.2 26 0 7.3-.1 1.6-.3-12.7-.3-14.3 0-20.3.2-13.3.3zm1 81.3c0 1.4.2 1.9.5 1.2.2-.6.2-1.8 0-2.5-.3-.6-.5-.1-.5 1.3zm103.7 7.7c-1.3 1.6-1.2 1.7.4.4.9-.7 1.7-1.5 1.7-1.7 0-.8-.8-.3-2.1 1.3zm-23.1 47c.7.3 1.6.2 1.9-.1.4-.3-.2-.6-1.3-.5-1.1 0-1.4.3-.6.6zm51.5 0c20.3.2 53.1.2 73 0 19.9-.1 3.4-.2-36.8-.2-40.1 0-56.4.1-36.2.2z"/>
    <path fill="#BF4000" fill-opacity=".8"
          d="M494.9 206.7c-1.3 1.6-1.2 1.7.4.4 1.6-1.3 2.1-2.1 1.3-2.1-.2 0-1 .8-1.7 1.7zm-48.1 4c7.2.2 19.2.2 26.5 0 7.2-.1 1.3-.3-13.3-.3-14.6 0-20.5.2-13.2.3zm24.4 81.3c0 1.4.2 1.9.5 1.2.2-.6.2-1.8 0-2.5-.3-.6-.5-.1-.5 1.3zm-24.3 30.7-2.4 2.8 2.8-2.4c2.5-2.3 3.2-3.1 2.4-3.1-.2 0-1.4 1.2-2.8 2.7zm-142.1 24c13.4.2 35 .2 48 0 13-.1 2.1-.2-24.3-.2-26.4 0-37.1.1-23.7.2zm91.5 0c4.3.2 11 .2 15 0 4-.1.5-.3-7.8-.3-8.2 0-11.5.2-7.2.3z"/>
    <path fill="#BF8000" fill-opacity=".6"
          d="M158.3 145.7c23.6.2 61.8.2 85 0 23.2-.1 4-.2-42.8-.2-46.7 0-65.7.1-42.2.2zm-50.5 76c1.8.2 4.5.2 6 0s0-.4-3.3-.4-4.5.2-2.7.4zm79.6 80.3c0 17.9.2 25.2.3 16.2.2-8.9.2-23.5 0-32.5-.1-8.9-.3-1.6-.3 16.3z"/>
    <path fill="#FF4000" fill-opacity=".5"
          d="M381.3 221.7c7.1.2 18.3.2 25 0 6.7-.1 1-.3-12.8-.3-13.7 0-19.2.2-12.2.3z"/>
    <path fill="#FF4000" fill-opacity=".6" d="M452.2 168.7c5.9.2 15.8.2 22 0 6.2-.1 1.4-.3-10.7-.3s-17.2.2-11.3.3z"/>
    <path fill="#FF4000" fill-opacity=".4"
          d="M308.8 133.7c15.6.2 40.8.2 56 0 15.2-.1 2.5-.2-28.3-.2s-43.3.1-27.7.2zm-19.5 88c4.8.2 12.5.2 17 0 4.5-.1.6-.3-8.8-.3-9.3 0-13 .2-8.2.3z"/>
    <path fill="#BF8000" fill-opacity=".4"
          d="M141.3 209.7c25.1.2 66.3.2 91.5 0 25.1-.1 4.5-.2-45.8-.2s-70.9.1-45.7.2zm-8.5 12c2.9.2 7.4.2 10 0 2.6-.2.2-.3-5.3-.3s-7.6.1-4.7.3z"/>
    <path fill="#FFBF00" fill-opacity=".1" d="M34.8 222.7c4.5.2 11.9.2 16.5 0 4.5-.1.8-.3-8.3-.3-9.1 0-12.8.2-8.2.3z"/>
    <g>
        <svg xmlns="http://www.w3.org/2000/svg"
             version="1.0" viewBox="-150 -400 512 512">
            <text fill="#FFFFFF" textLength="210" lengthAdjust="spacing" font-size="60" class="text">ZET - PRJ</text>
        </svg>
    </g>
</svg>